<svg width="30" height="30" viewBox="0 0 30 30" fill="none" xmlns="http://www.w3.org/2000/svg">
<rect width="30" height="30" rx="4" fill="white"/>
<path d="M10.8327 23.3333C11.7532 23.3333 12.4993 22.5871 12.4993 21.6667C12.4993 20.7462 11.7532 20 10.8327 20C9.91221 20 9.16602 20.7462 9.16602 21.6667C9.16602 22.5871 9.91221 23.3333 10.8327 23.3333Z" fill="#2D3341"/>
<path d="M19.166 23.3333C20.0865 23.3333 20.8327 22.5871 20.8327 21.6667C20.8327 20.7462 20.0865 20 19.166 20C18.2455 20 17.4993 20.7462 17.4993 21.6667C17.4993 22.5871 18.2455 23.3333 19.166 23.3333Z" fill="#2D3341"/>
<path d="M7.87221 6.75613C7.46056 6.5503 6.96 6.71716 6.75418 7.12881C6.54835 7.54046 6.7152 8.04102 7.12685 8.24684L7.96311 8.66497C8.22124 8.79403 8.39421 9.04747 8.42034 9.33488L9.03182 16.0612C9.14889 17.3489 10.2285 18.3348 11.5216 18.3348H18.7424C19.8586 18.3348 20.8395 17.5949 21.1462 16.5216L22.164 12.9594C22.4682 11.8947 21.6687 10.8348 20.5614 10.8348H10.2302L10.0802 9.18399C10.0018 8.32175 9.48285 7.56145 8.70847 7.17426L7.87221 6.75613Z" fill="#2D3341"/>
</svg>
