<svg width="33" height="30" viewBox="0 0 33 30" fill="none" xmlns="http://www.w3.org/2000/svg">
<path d="M10.8346 23.3333C11.7551 23.3333 12.5013 22.5871 12.5013 21.6667C12.5013 20.7462 11.7551 20 10.8346 20C9.91416 20 9.16797 20.7462 9.16797 21.6667C9.16797 22.5871 9.91416 23.3333 10.8346 23.3333Z" fill="#2E334D"/>
<path d="M19.168 23.3333C20.0884 23.3333 20.8346 22.5871 20.8346 21.6667C20.8346 20.7462 20.0884 20 19.168 20C18.2475 20 17.5013 20.7462 17.5013 21.6667C17.5013 22.5871 18.2475 23.3333 19.168 23.3333Z" fill="#2E334D"/>
<path d="M7.87416 6.75613C7.46251 6.5503 6.96195 6.71716 6.75613 7.12881C6.5503 7.54046 6.71716 8.04102 7.12881 8.24684L7.96506 8.66497C8.22319 8.79403 8.39617 9.04747 8.4223 9.33488L9.03378 16.0612C9.15084 17.3489 10.2305 18.3348 11.5235 18.3348H18.7443C19.8605 18.3348 20.8415 17.5949 21.1481 16.5216L22.1659 12.9594C22.4701 11.8947 21.6707 10.8348 20.5634 10.8348H10.2322L10.0821 9.18399C10.0037 8.32175 9.48481 7.56145 8.71042 7.17426L7.87416 6.75613Z" fill="#2E334D"/>
<rect x="16" y="2" width="14" height="14" rx="7" fill="white"/>
<path d="M20.3859 9.65712C20.3859 11.429 21.26 12.6024 22.7326 12.6024C24.1974 12.6024 25.0715 11.429 25.0715 9.65712C25.0715 7.89312 24.158 6.69612 22.7326 6.69612C21.2994 6.69612 20.3859 7.89312 20.3859 9.65712ZM21.1498 9.65712C21.1498 8.23962 21.7325 7.38912 22.7326 7.38912C23.7328 7.38912 24.3076 8.23962 24.3076 9.65712C24.3076 11.0589 23.7328 11.9094 22.7326 11.9094C21.7325 11.9094 21.1498 11.0589 21.1498 9.65712Z" fill="white"/>
<rect x="17" y="3" width="12" height="12" rx="6" fill="#5827E4"/>
<path d="M20.42 8.90571C20.42 10.8343 21.3714 12.1114 22.9743 12.1114C24.5686 12.1114 25.52 10.8343 25.52 8.90571C25.52 6.98571 24.5257 5.68286 22.9743 5.68286C21.4143 5.68286 20.42 6.98571 20.42 8.90571ZM21.2514 8.90571C21.2514 7.36286 21.8857 6.43714 22.9743 6.43714C24.0629 6.43714 24.6886 7.36286 24.6886 8.90571C24.6886 10.4314 24.0629 11.3571 22.9743 11.3571C21.8857 11.3571 21.2514 10.4314 21.2514 8.90571Z" fill="white"/>
</svg>
