<svg width="106" height="36" viewBox="0 0 106 36" fill="none" xmlns="http://www.w3.org/2000/svg">
<rect x="0.5" y="0.5" width="105" height="35" rx="3.5" stroke="#E7E7EA"/>
<path d="M21.456 19.088V17.664H16.912V13.872H22.32V12.432H15.344V24H16.912V19.088H21.456ZM24.699 14.32C25.243 14.32 25.691 13.872 25.691 13.328C25.691 12.768 25.243 12.336 24.699 12.336C24.155 12.336 23.707 12.768 23.707 13.328C23.707 13.872 24.155 14.32 24.699 14.32ZM23.963 24H25.467V16.176H23.963V24ZM29.1865 24V12.224H27.6825V24H29.1865ZM33.6085 24V17.44H35.1445V16.176H33.6085V13.728H32.1045V16.176H30.5685V17.44H32.1045V24H33.6085ZM39.7921 24.192C41.7281 24.192 43.0401 23.248 43.4241 21.568H42.0161C41.7601 22.464 40.9921 22.944 39.8241 22.944C38.3361 22.944 37.4721 22.032 37.3601 20.384L43.4081 20.368V19.808C43.4081 17.488 41.9521 15.952 39.7281 15.952C37.4561 15.952 35.9041 17.648 35.9041 20.096C35.9041 22.528 37.4881 24.192 39.7921 24.192ZM39.7281 17.216C41.0561 17.216 41.9041 18.08 41.9041 19.376H37.3921C37.5841 18 38.4161 17.216 39.7281 17.216ZM49.568 16.112C49.264 16.048 49.04 16.016 48.768 16.016C47.696 16.016 46.912 16.56 46.592 17.376L46.496 16.192H45.088V24H46.592V19.856C46.592 18.352 47.472 17.488 48.896 17.488H49.568V16.112Z" fill="#101010"/>
<path fill-rule="evenodd" clip-rule="evenodd" d="M73.6673 21.332C73.2071 21.332 72.834 21.7051 72.834 22.1654C72.834 22.6256 73.2071 22.9987 73.6673 22.9987H82.834C83.2942 22.9987 83.6673 22.6256 83.6673 22.1654C83.6673 21.7051 83.2942 21.332 82.834 21.332H73.6673ZM87.834 21.332C87.3737 21.332 87.0006 21.7051 87.0006 22.1654C87.0006 22.6256 87.3737 22.9987 87.834 22.9987H90.334C90.7942 22.9987 91.1673 22.6256 91.1673 22.1654C91.1673 21.7051 90.7942 21.332 90.334 21.332H87.834Z" fill="#101010"/>
<path fill-rule="evenodd" clip-rule="evenodd" d="M85.3333 23.832C86.2538 23.832 87 23.0858 87 22.1654C87 21.2449 86.2538 20.4987 85.3333 20.4987C84.4129 20.4987 83.6667 21.2449 83.6667 22.1654C83.6667 23.0858 84.4129 23.832 85.3333 23.832ZM85.3333 25.4987C87.1743 25.4987 88.6667 24.0063 88.6667 22.1654C88.6667 20.3244 87.1743 18.832 85.3333 18.832C83.4924 18.832 82 20.3244 82 22.1654C82 24.0063 83.4924 25.4987 85.3333 25.4987Z" fill="#101010"/>
<path fill-rule="evenodd" clip-rule="evenodd" d="M73.6673 13C73.2071 13 72.834 13.3731 72.834 13.8333C72.834 14.2936 73.2071 14.6667 73.6673 14.6667H76.1673C76.6276 14.6667 77.0007 14.2936 77.0007 13.8333C77.0007 13.3731 76.6276 13 76.1673 13H73.6673ZM81.1673 13C80.7071 13 80.334 13.3731 80.334 13.8333C80.334 14.2936 80.7071 14.6667 81.1673 14.6667H90.334C90.7942 14.6667 91.1673 14.2936 91.1673 13.8333C91.1673 13.3731 90.7942 13 90.334 13H81.1673Z" fill="#101010"/>
<path fill-rule="evenodd" clip-rule="evenodd" d="M78.6673 15.5C79.5878 15.5 80.334 14.7538 80.334 13.8333C80.334 12.9129 79.5878 12.1667 78.6673 12.1667C77.7468 12.1667 77.0007 12.9129 77.0007 13.8333C77.0007 14.7538 77.7468 15.5 78.6673 15.5ZM78.6673 17.1667C80.5083 17.1667 82.0007 15.6743 82.0007 13.8333C82.0007 11.9924 80.5083 10.5 78.6673 10.5C76.8264 10.5 75.334 11.9924 75.334 13.8333C75.334 15.6743 76.8264 17.1667 78.6673 17.1667Z" fill="#101010"/>
</svg>
