<svg width="89" height="32" viewBox="0 0 89 32" fill="none" xmlns="http://www.w3.org/2000/svg">
<rect width="32" height="32" rx="16" fill="url(#paint0_linear_2_7257)"/>
<path fill-rule="evenodd" clip-rule="evenodd" d="M22.8588 18.2554C22.8588 14.4506 19.7888 11.3663 16.0017 11.3663C12.2146 11.3663 9.14453 14.4506 9.14453 18.2554C9.14453 22.0602 12.2146 25.1445 16.0017 25.1445C19.7888 25.1445 22.8588 22.0602 22.8588 18.2554ZM16.0017 14.7573C17.9247 14.7573 19.4835 16.3235 19.4835 18.2554C19.4835 20.1874 17.9247 21.7535 16.0017 21.7535C14.0787 21.7535 12.5198 20.1874 12.5198 18.2554V14.7573H16.0017Z" fill="black"/>
<path fill-rule="evenodd" clip-rule="evenodd" d="M16.0017 11.3663C19.7888 11.3663 22.8588 14.4506 22.8588 18.2554C22.8588 22.0602 19.7888 25.1445 16.0017 25.1445C12.2146 25.1445 9.14453 22.0602 9.14453 18.2554V11.3663H16.0017ZM16.0017 14.7573C17.9247 14.7573 19.4835 16.3235 19.4835 18.2554C19.4835 20.1874 17.9247 21.7535 16.0017 21.7535C14.0787 21.7535 12.5198 20.1874 12.5198 18.2554V14.7573H16.0017Z" fill="white"/>
<path d="M12.2188 11.373V14.7461H15.9933V11.373H12.2188Z" fill="url(#paint1_linear_2_7257)"/>
<path d="M9.14453 6.85938C11.0094 6.85938 12.5211 8.37113 12.5211 10.236V15.029H9.14453V6.85938Z" fill="white"/>
<path d="M41.296 22H46.032C48.448 22 49.84 20.832 49.84 18.832C49.84 17.472 49.216 16.544 47.984 16.144C49.088 15.68 49.664 14.752 49.664 13.456C49.664 11.504 48.256 10.304 45.952 10.304H41.296V22ZM45.776 12.112C46.928 12.112 47.568 12.656 47.568 13.664C47.568 14.704 46.944 15.296 45.824 15.296H43.344V12.112H45.776ZM45.952 17.024C47.088 17.024 47.744 17.584 47.744 18.576C47.744 19.632 47.104 20.192 45.952 20.192H43.344V17.024H45.952ZM54.9659 22.208C57.0299 22.208 58.4699 21.168 58.8059 19.44H56.9979C56.7739 20.192 56.0699 20.608 54.9979 20.608C53.7019 20.608 52.9659 19.904 52.8219 18.512L58.7739 18.496V17.904C58.7739 15.44 57.2699 13.856 54.9019 13.856C52.5819 13.856 50.9659 15.568 50.9659 18.048C50.9659 20.496 52.6139 22.208 54.9659 22.208ZM54.9179 15.456C56.0859 15.456 56.8379 16.176 56.8379 17.264H52.8699C53.0619 16.08 53.7659 15.456 54.9179 15.456ZM59.7281 19.6C59.7281 21.152 60.9761 22.208 62.9441 22.208C64.8961 22.208 66.2561 21.216 66.2561 19.616C66.2561 18.4 65.5841 17.792 64.2561 17.488L62.8321 17.152C62.1601 16.992 61.8081 16.704 61.8081 16.256C61.8081 15.664 62.2561 15.312 63.0241 15.312C63.7761 15.312 64.2241 15.744 64.2401 16.416H66.0961C66.0801 14.88 64.8801 13.856 63.1041 13.856C61.2801 13.856 59.9681 14.784 59.9681 16.336C59.9681 17.6 60.6561 18.272 62.0801 18.592L63.5041 18.928C64.2081 19.088 64.4161 19.376 64.4161 19.776C64.4161 20.352 63.9201 20.72 63.0081 20.72C62.1121 20.72 61.6001 20.288 61.5841 19.6H59.7281ZM69.6944 22V17.744C69.6944 16.464 70.4304 15.632 71.6304 15.632C72.6384 15.632 73.2944 16.272 73.2944 17.6V22H75.2464V17.136C75.2464 15.088 74.2224 13.856 72.2384 13.856C71.1664 13.856 70.2064 14.32 69.7104 15.12L69.5504 14.096H67.7424V22H69.6944ZM78.1403 12.512C78.7803 12.512 79.3083 11.984 79.3083 11.328C79.3083 10.672 78.7803 10.16 78.1403 10.16C77.4683 10.16 76.9403 10.672 76.9403 11.328C76.9403 11.984 77.4683 12.512 78.1403 12.512ZM77.1643 22H79.1163V14.096H77.1643V22ZM83.101 22V19.872L84.253 18.672L86.317 22H88.557L85.613 17.232L88.621 14.096H86.173L83.101 17.408V10.096H81.165V22H83.101Z" fill="#101010"/>
<defs>
<linearGradient id="paint0_linear_2_7257" x1="2.76327e-07" y1="9.59999" x2="32.8634" y2="11.1818" gradientUnits="userSpaceOnUse">
<stop stop-color="#0781FF"/>
<stop offset="0.479433" stop-color="#4A46FF"/>
<stop offset="1" stop-color="#9106FF"/>
</linearGradient>
<linearGradient id="paint1_linear_2_7257" x1="12.2188" y1="13.0595" x2="15.9933" y2="13.0595" gradientUnits="userSpaceOnUse">
<stop stop-color="#E4D7F8"/>
<stop offset="1" stop-color="white"/>
</linearGradient>
</defs>
</svg>
