<svg width="16" height="18" viewBox="0 0 16 18" fill="none" xmlns="http://www.w3.org/2000/svg">
<path d="M7.27402 17.7285C7.90232 17.7277 8.51114 17.5103 8.99778 17.1129C9.48443 16.7154 9.81913 16.1624 9.94545 15.5469H4.60156C4.72827 16.1624 5.06322 16.7154 5.55 17.1127C6.03678 17.5101 6.64563 17.7276 7.27402 17.7285Z" fill="#2E334D"/>
<path d="M12.3731 9.00012H12.3643C11.5072 9.0021 10.6635 8.78713 9.91176 8.37521C9.16006 7.9633 8.52483 7.36785 8.06524 6.64431C7.60565 5.92078 7.33665 5.09271 7.28328 4.23721C7.22991 3.38171 7.39392 2.52662 7.76003 1.75158C7.59967 1.73638 7.43803 1.72656 7.27345 1.72656C5.92326 1.72656 4.62838 2.26292 3.67365 3.21765C2.71893 4.17237 2.18257 5.46726 2.18257 6.81744V8.84515C2.18271 9.55635 2.02735 10.259 1.72735 10.9038C1.42736 11.5486 0.989996 12.1201 0.445906 12.5781C0.262074 12.7353 0.126802 12.9415 0.0559175 13.1728C-0.0149668 13.404 -0.0185316 13.6506 0.0456415 13.8838C0.201698 14.4542 0.763336 14.8178 1.35463 14.8178H13.1901C13.8095 14.8178 14.3944 14.4165 14.5195 13.8098C14.5674 13.5825 14.5522 13.3464 14.4757 13.1271C14.3991 12.9078 14.2641 12.7135 14.0852 12.5653C13.5651 12.1249 13.1438 11.5797 12.8488 10.9654C12.5538 10.351 12.3917 9.68137 12.3731 9.00012Z" fill="#2E334D"/>
<path d="M16.0019 3.90916C16.0019 4.62824 15.7887 5.33117 15.3892 5.92906C14.9897 6.52695 14.4219 6.99295 13.7575 7.26813C13.0932 7.54331 12.3622 7.61531 11.6569 7.47502C10.9516 7.33474 10.3038 6.98847 9.79535 6.48C9.28688 5.97154 8.94061 5.32371 8.80033 4.61845C8.66004 3.91319 8.73204 3.18217 9.00722 2.51783C9.2824 1.85349 9.7484 1.28566 10.3463 0.886167C10.9442 0.486668 11.6471 0.273438 12.3662 0.273438C12.8436 0.273429 13.3164 0.367463 13.7575 0.550172C14.1986 0.732881 14.5994 1.00069 14.9371 1.3383C15.2747 1.6759 15.5425 2.07671 15.7252 2.51782C15.9079 2.95893 16.0019 3.43171 16.0019 3.90916Z" fill="#5827E4"/>
</svg>
